<mxfile host="app.diagrams.net" modified="2023-11-19T09:17:53.114Z" agent="Mozilla/5.0 (Windows NT 10.0; Win64; x64) AppleWebKit/537.36 (KHTML, like Gecko) Chrome/119.0.0.0 Safari/537.36" etag="6vad9jEFlSSLztTqm9oj" version="22.1.3" type="device">
  <diagram name="Page-1" id="seFhscIo3sUUUQGnScW6">
    <mxGraphModel dx="1035" dy="562" grid="1" gridSize="10" guides="1" tooltips="1" connect="1" arrows="1" fold="1" page="1" pageScale="1" pageWidth="850" pageHeight="1100" math="0" shadow="0">
      <root>
        <mxCell id="0" />
        <mxCell id="1" parent="0" />
        <mxCell id="u0JWFG9UihO8El33p5MO-9" value="" style="edgeStyle=orthogonalEdgeStyle;rounded=0;orthogonalLoop=1;jettySize=auto;html=1;" edge="1" parent="1" source="u0JWFG9UihO8El33p5MO-1" target="u0JWFG9UihO8El33p5MO-3">
          <mxGeometry relative="1" as="geometry" />
        </mxCell>
        <mxCell id="u0JWFG9UihO8El33p5MO-1" value="BEGIN" style="ellipse;whiteSpace=wrap;html=1;" vertex="1" parent="1">
          <mxGeometry x="370" y="10" width="120" height="70" as="geometry" />
        </mxCell>
        <mxCell id="u0JWFG9UihO8El33p5MO-10" value="" style="edgeStyle=orthogonalEdgeStyle;rounded=0;orthogonalLoop=1;jettySize=auto;html=1;" edge="1" parent="1" source="u0JWFG9UihO8El33p5MO-3" target="u0JWFG9UihO8El33p5MO-4">
          <mxGeometry relative="1" as="geometry" />
        </mxCell>
        <mxCell id="u0JWFG9UihO8El33p5MO-3" value="let a = 0" style="whiteSpace=wrap;html=1;" vertex="1" parent="1">
          <mxGeometry x="370" y="140" width="120" height="50" as="geometry" />
        </mxCell>
        <mxCell id="u0JWFG9UihO8El33p5MO-11" value="" style="edgeStyle=orthogonalEdgeStyle;rounded=0;orthogonalLoop=1;jettySize=auto;html=1;" edge="1" parent="1" source="u0JWFG9UihO8El33p5MO-4" target="u0JWFG9UihO8El33p5MO-6">
          <mxGeometry relative="1" as="geometry" />
        </mxCell>
        <mxCell id="u0JWFG9UihO8El33p5MO-14" style="edgeStyle=orthogonalEdgeStyle;rounded=0;orthogonalLoop=1;jettySize=auto;html=1;entryX=0;entryY=0.5;entryDx=0;entryDy=0;" edge="1" parent="1" source="u0JWFG9UihO8El33p5MO-4" target="u0JWFG9UihO8El33p5MO-8">
          <mxGeometry relative="1" as="geometry" />
        </mxCell>
        <mxCell id="u0JWFG9UihO8El33p5MO-4" value="a &amp;lt;= 10" style="rhombus;whiteSpace=wrap;html=1;" vertex="1" parent="1">
          <mxGeometry x="385" y="250" width="90" height="80" as="geometry" />
        </mxCell>
        <mxCell id="u0JWFG9UihO8El33p5MO-12" value="" style="edgeStyle=orthogonalEdgeStyle;rounded=0;orthogonalLoop=1;jettySize=auto;html=1;" edge="1" parent="1" source="u0JWFG9UihO8El33p5MO-6" target="u0JWFG9UihO8El33p5MO-7">
          <mxGeometry relative="1" as="geometry" />
        </mxCell>
        <mxCell id="u0JWFG9UihO8El33p5MO-6" value="Display a" style="whiteSpace=wrap;html=1;" vertex="1" parent="1">
          <mxGeometry x="370" y="380" width="120" height="50" as="geometry" />
        </mxCell>
        <mxCell id="u0JWFG9UihO8El33p5MO-15" style="edgeStyle=orthogonalEdgeStyle;rounded=0;orthogonalLoop=1;jettySize=auto;html=1;entryX=0;entryY=0.5;entryDx=0;entryDy=0;exitX=0;exitY=0.5;exitDx=0;exitDy=0;" edge="1" parent="1" source="u0JWFG9UihO8El33p5MO-7" target="u0JWFG9UihO8El33p5MO-4">
          <mxGeometry relative="1" as="geometry">
            <Array as="points">
              <mxPoint x="280" y="515" />
              <mxPoint x="280" y="290" />
            </Array>
          </mxGeometry>
        </mxCell>
        <mxCell id="u0JWFG9UihO8El33p5MO-7" value="a++" style="whiteSpace=wrap;html=1;" vertex="1" parent="1">
          <mxGeometry x="370" y="490" width="120" height="50" as="geometry" />
        </mxCell>
        <mxCell id="u0JWFG9UihO8El33p5MO-8" value="END" style="ellipse;whiteSpace=wrap;html=1;" vertex="1" parent="1">
          <mxGeometry x="600" y="255" width="120" height="70" as="geometry" />
        </mxCell>
        <mxCell id="u0JWFG9UihO8El33p5MO-16" value="&amp;nbsp;true" style="text;html=1;align=center;verticalAlign=middle;resizable=0;points=[];autosize=1;strokeColor=none;fillColor=none;" vertex="1" parent="1">
          <mxGeometry x="415" y="338" width="50" height="30" as="geometry" />
        </mxCell>
        <mxCell id="u0JWFG9UihO8El33p5MO-17" value="false" style="text;html=1;align=center;verticalAlign=middle;resizable=0;points=[];autosize=1;strokeColor=none;fillColor=none;" vertex="1" parent="1">
          <mxGeometry x="505" y="268" width="50" height="30" as="geometry" />
        </mxCell>
      </root>
    </mxGraphModel>
  </diagram>
</mxfile>
